<svg xmlns="http://www.w3.org/2000/svg" width="760" height="760" viewBox="0 0 760 760">
  <defs>
    <linearGradient id="bar" x1="0" y1="0" x2="1" y2="0">
      <stop offset="0" stop-color="#20c86c"/>
      <stop offset="1" stop-color="#8effb2"/>
    </linearGradient>
    <filter id="shadow" x="-10%" y="-10%" width="120%" height="120%">
      <feDropShadow dx="0" dy="10" stdDeviation="12" flood-color="#000" flood-opacity="0.45"/>
    </filter>
  </defs>
  <rect x="0" y="0" width="760" height="760" rx="0" fill="#171717" />
  <g opacity="0.18" stroke="#333" stroke-width="1"><path d="M0 36h760" /><path d="M0 72h760" /><path d="M0 108h760" /><path d="M0 144h760" /><path d="M0 180h760" /><path d="M0 216h760" /><path d="M0 252h760" /><path d="M0 288h760" /><path d="M0 324h760" /><path d="M0 360h760" /><path d="M0 396h760" /><path d="M0 432h760" /><path d="M0 468h760" /><path d="M0 504h760" /><path d="M0 540h760" /><path d="M0 576h760" /><path d="M0 612h760" /><path d="M0 648h760" /><path d="M0 684h760" /><path d="M0 720h760" /><path d="M0 756h760" /><path d="M36 0v760" /><path d="M72 0v760" /><path d="M108 0v760" /><path d="M144 0v760" /><path d="M180 0v760" /><path d="M216 0v760" /><path d="M252 0v760" /><path d="M288 0v760" /><path d="M324 0v760" /><path d="M360 0v760" /><path d="M396 0v760" /><path d="M432 0v760" /><path d="M468 0v760" /><path d="M504 0v760" /><path d="M540 0v760" /><path d="M576 0v760" /><path d="M612 0v760" /><path d="M648 0v760" /><path d="M684 0v760" /><path d="M720 0v760" /><path d="M756 0v760" /></g>
  <rect x="55" y="90" width="620" height="350" rx="14" fill="#303030" stroke="#a6a6a6" stroke-width="2" filter="url(#shadow)"/><rect x="61" y="96" width="608" height="44" rx="10" fill="#393939" /><circle cx="77" cy="118" r="6" fill="#777"/><text x="99" y="124" fill="#f5f5f5" font-family="Arial, sans-serif" font-size="20" font-weight="700" text-anchor="start">(Deno) LTX Multi LoRA Loader</text><rect x="470" y="62" width="176" height="28" rx="6" fill="#103916" /><text x="558" y="82" fill="#d8ffe1" font-family="Arial, sans-serif" font-size="17" font-weight="700" text-anchor="middle">deno-custom-nodes</text><circle cx="73" cy="176" r="5" fill="#c38cff"/><text x="91" y="181" fill="#a7aaa8" font-family="Arial, sans-serif" font-size="15" font-weight="600" text-anchor="start">model</text><circle cx="73" cy="202" r="5" fill="#ffd600"/><text x="91" y="207" fill="#a7aaa8" font-family="Arial, sans-serif" font-size="15" font-weight="600" text-anchor="start">clip</text><text x="641" y="181" fill="#a7aaa8" font-family="Arial, sans-serif" font-size="15" font-weight="600" text-anchor="end">model</text><circle cx="659" cy="176" r="5" fill="#c38cff"/><text x="641" y="207" fill="#a7aaa8" font-family="Arial, sans-serif" font-size="15" font-weight="600" text-anchor="end">clip</text><circle cx="659" cy="202" r="5" fill="#ffd600"/><text x="135" y="256" fill="#a7aaa8" font-family="Arial, sans-serif" font-size="14" font-weight="700" text-anchor="start">Toggle All</text><text x="385" y="256" fill="#a7aaa8" font-family="Arial, sans-serif" font-size="13" font-weight="800" text-anchor="start">Strength</text><text x="485" y="256" fill="#a7aaa8" font-family="Arial, sans-serif" font-size="13" font-weight="800" text-anchor="start">Video</text><text x="575" y="256" fill="#a7aaa8" font-family="Arial, sans-serif" font-size="13" font-weight="800" text-anchor="start">Audio</text><rect x="89" y="274" width="552" height="27" rx="13" fill="#242424" stroke="#777" stroke-width="1" /><circle cx="113" cy="288" r="10" fill="#8faad0"/><text x="131" y="292" fill="#f5f5f5" font-family="Arial, sans-serif" font-size="12" font-weight="700" text-anchor="start">ltx2.3 portrait motion.safetensors</text><text x="453" y="292" fill="#f5f5f5" font-family="Arial, sans-serif" font-size="12" font-weight="800" text-anchor="middle">◀ 1.00 ▶</text><text x="539" y="292" fill="#f5f5f5" font-family="Arial, sans-serif" font-size="12" font-weight="800" text-anchor="middle">1.00</text><text x="623" y="292" fill="#f5f5f5" font-family="Arial, sans-serif" font-size="12" font-weight="800" text-anchor="middle">1.00</text><rect x="89" y="308" width="552" height="27" rx="13" fill="#242424" stroke="#777" stroke-width="1" /><circle cx="113" cy="322" r="10" fill="#8faad0"/><text x="131" y="326" fill="#f5f5f5" font-family="Arial, sans-serif" font-size="12" font-weight="700" text-anchor="start">ltx2.3 tts deno_copy.safetensors</text><text x="453" y="326" fill="#f5f5f5" font-family="Arial, sans-serif" font-size="12" font-weight="800" text-anchor="middle">◀ 1.00 ▶</text><text x="539" y="326" fill="#f5f5f5" font-family="Arial, sans-serif" font-size="12" font-weight="800" text-anchor="middle">1.00</text><text x="623" y="326" fill="#f5f5f5" font-family="Arial, sans-serif" font-size="12" font-weight="800" text-anchor="middle">1.00</text><rect x="89" y="358" width="552" height="34" rx="7" fill="#242424" stroke="#777" stroke-width="1" /><text x="365.0" y="381" fill="#f5f5f5" font-family="Arial, sans-serif" font-size="16" font-weight="800" text-anchor="middle">+ Add LoRA</text>
</svg>
