<svg xmlns="http://www.w3.org/2000/svg" width="760" height="760" viewBox="0 0 760 760">
  <defs>
    <linearGradient id="bar" x1="0" y1="0" x2="1" y2="0">
      <stop offset="0" stop-color="#20c86c"/>
      <stop offset="1" stop-color="#8effb2"/>
    </linearGradient>
    <filter id="shadow" x="-10%" y="-10%" width="120%" height="120%">
      <feDropShadow dx="0" dy="10" stdDeviation="12" flood-color="#000" flood-opacity="0.45"/>
    </filter>
  </defs>
  <rect x="0" y="0" width="760" height="760" rx="0" fill="#171717" />
  <g opacity="0.18" stroke="#333" stroke-width="1"><path d="M0 36h760" /><path d="M0 72h760" /><path d="M0 108h760" /><path d="M0 144h760" /><path d="M0 180h760" /><path d="M0 216h760" /><path d="M0 252h760" /><path d="M0 288h760" /><path d="M0 324h760" /><path d="M0 360h760" /><path d="M0 396h760" /><path d="M0 432h760" /><path d="M0 468h760" /><path d="M0 504h760" /><path d="M0 540h760" /><path d="M0 576h760" /><path d="M0 612h760" /><path d="M0 648h760" /><path d="M0 684h760" /><path d="M0 720h760" /><path d="M0 756h760" /><path d="M36 0v760" /><path d="M72 0v760" /><path d="M108 0v760" /><path d="M144 0v760" /><path d="M180 0v760" /><path d="M216 0v760" /><path d="M252 0v760" /><path d="M288 0v760" /><path d="M324 0v760" /><path d="M360 0v760" /><path d="M396 0v760" /><path d="M432 0v760" /><path d="M468 0v760" /><path d="M504 0v760" /><path d="M540 0v760" /><path d="M576 0v760" /><path d="M612 0v760" /><path d="M648 0v760" /><path d="M684 0v760" /><path d="M720 0v760" /><path d="M756 0v760" /></g>
  <rect x="60" y="60" width="600" height="390" rx="16" fill="#020704" stroke="#0f7d3e" stroke-width="2" /><text x="86" y="100" fill="#93ffb8" font-family="Arial, sans-serif" font-size="22" font-weight="800" text-anchor="start">Dependency-aware LTX loading</text><rect x="86" y="135" width="548" height="48" rx="9" fill="#0d1711" stroke="#1d3c29" stroke-width="1" /><text x="104" y="163" fill="#f5f5f5" font-family="Arial, sans-serif" font-size="15" font-weight="800" text-anchor="start">Checkpoint Style</text><text x="250" y="163" fill="#cfead7" font-family="Arial, sans-serif" font-size="12" font-weight="600" text-anchor="start">ComfyUI checkpoint + LTX audio text/audio VAE loaders</text><rect x="86" y="200" width="548" height="48" rx="9" fill="#0d1711" stroke="#1d3c29" stroke-width="1" /><text x="104" y="228" fill="#f5f5f5" font-family="Arial, sans-serif" font-size="15" font-weight="800" text-anchor="start">KJ Style</text><text x="250" y="228" fill="#cfead7" font-family="Arial, sans-serif" font-size="12" font-weight="600" text-anchor="start">ComfyUI diffusion model + DualCLIP + KJ video/audio VAE</text><rect x="86" y="265" width="548" height="48" rx="9" fill="#0d1711" stroke="#1d3c29" stroke-width="1" /><text x="104" y="293" fill="#f5f5f5" font-family="Arial, sans-serif" font-size="15" font-weight="800" text-anchor="start">GGUF Style</text><text x="250" y="293" fill="#cfead7" font-family="Arial, sans-serif" font-size="12" font-weight="600" text-anchor="start">ComfyUI-GGUF UNet + DualCLIP + KJ video/audio VAE</text><rect x="86" y="330" width="548" height="48" rx="9" fill="#0d1711" stroke="#1d3c29" stroke-width="1" /><text x="104" y="358" fill="#f5f5f5" font-family="Arial, sans-serif" font-size="15" font-weight="800" text-anchor="start">Safety</text><text x="250" y="358" fill="#cfead7" font-family="Arial, sans-serif" font-size="12" font-weight="600" text-anchor="start">Clear messages when KJNodes, GGUF, or ComfyUI core is outdated</text>
</svg>
